<?xml version="1.0" encoding="UTF-8" standalone="no"?>
<!-- Created with Inkscape (http://www.inkscape.org/) -->

<svg
   xmlns:dc="http://purl.org/dc/elements/1.1/"
   xmlns:cc="http://creativecommons.org/ns#"
   xmlns:rdf="http://www.w3.org/1999/02/22-rdf-syntax-ns#"
   xmlns:svg="http://www.w3.org/2000/svg"
   xmlns="http://www.w3.org/2000/svg"
   xmlns:sodipodi="http://sodipodi.sourceforge.net/DTD/sodipodi-0.dtd"
   xmlns:inkscape="http://www.inkscape.org/namespaces/inkscape"
   width="210mm"
   height="297mm"
   viewBox="0 0 210 297"
   version="1.1"
   id="svg8"
   inkscape:version="0.92.5 (2060ec1f9f, 2020-04-08)"
   sodipodi:docname="humain_sain.svg">
  <defs
     id="defs2" />
  <sodipodi:namedview
     id="base"
     pagecolor="#ffffff"
     bordercolor="#666666"
     borderopacity="1.0"
     inkscape:pageopacity="0.0"
     inkscape:pageshadow="2"
     inkscape:zoom="0.49497475"
     inkscape:cx="-68.84183"
     inkscape:cy="684.09336"
     inkscape:document-units="mm"
     inkscape:current-layer="layer1"
     showgrid="false"
     inkscape:window-width="1920"
     inkscape:window-height="1015"
     inkscape:window-x="0"
     inkscape:window-y="0"
     inkscape:window-maximized="1" />
  <metadata
     id="metadata5">
    <rdf:RDF>
      <cc:Work
         rdf:about="">
        <dc:format>image/svg+xml</dc:format>
        <dc:type
           rdf:resource="http://purl.org/dc/dcmitype/StillImage" />
        <dc:title></dc:title>
      </cc:Work>
    </rdf:RDF>
  </metadata>
  <g
     inkscape:label="Layer 1"
     inkscape:groupmode="layer"
     id="layer1">
    <g
       id="g85"
       transform="matrix(3.8850136,0,0,3.8850136,-189.8628,-521.28329)"
       style="fill:#00ff00"
       inkscape:export-xdpi="300"
       inkscape:export-ydpi="300">
      <path
         sodipodi:nodetypes="cccssccsssssccssccc"
         inkscape:connector-curvature="0"
         id="path12"
         transform="scale(0.26458333)"
         d="m 289.64258,512.81641 c -16.77868,8e-5 -30.38054,12.92337 -30.38086,28.86523 0.003,10.50152 6.0087,20.17291 15.68164,25.25391 h -13.58594 c -12.87136,0 -23.23242,10.36304 -23.23242,23.23437 v 102.02539 h 28.98633 c -0.25397,2.06322 -0.39453,4.18807 -0.39453,6.36524 v 73.26757 c 0,19.10996 9.868,16.63701 22.56864,16.63701 12.70063,0 23.28292,2.47295 23.28292,-16.63701 v -73.26757 c 0,-2.17717 -0.14056,-4.30202 -0.39453,-6.36524 h 28.98633 V 590.16992 c 0,-12.87133 -10.36302,-23.23437 -23.23438,-23.23437 h -13.63476 c 9.69255,-5.06836 15.71905,-14.74219 15.73242,-25.25391 -3.2e-4,-15.94186 -13.60218,-28.86515 -30.38086,-28.86523 z"
         style="opacity:1;fill:#00ff00;fill-opacity:1;stroke:#000000;stroke-width:0.84712094" />
      <path
         inkscape:connector-curvature="0"
         id="path25"
         d="m 67.846727,156.58184 v 26.55283"
         style="fill:#00ff00;stroke:#000000;stroke-width:0.25606781px;stroke-linecap:butt;stroke-linejoin:miter;stroke-opacity:1" />
      <path
         inkscape:connector-curvature="0"
         id="path25-3"
         d="m 85.422619,156.67634 v 26.41109"
         style="fill:#00ff00;stroke:#000000;stroke-width:0.25538343px;stroke-linecap:butt;stroke-linejoin:miter;stroke-opacity:1" />
      <path
         sodipodi:nodetypes="cc"
         inkscape:connector-curvature="0"
         id="path25-3-6"
         d="m 76.634685,184.43701 -0.09449,24.11949"
         style="fill:#00ff00;stroke:#000000;stroke-width:0.26645029px;stroke-linecap:butt;stroke-linejoin:miter;stroke-opacity:1" />
    </g>
  </g>
</svg>
