<?xml version="1.0" encoding="UTF-8" standalone="no"?>
<!-- Created with Inkscape (http://www.inkscape.org/) -->

<svg
   xmlns:osb="http://www.openswatchbook.org/uri/2009/osb"
   xmlns:dc="http://purl.org/dc/elements/1.1/"
   xmlns:cc="http://creativecommons.org/ns#"
   xmlns:rdf="http://www.w3.org/1999/02/22-rdf-syntax-ns#"
   xmlns:svg="http://www.w3.org/2000/svg"
   xmlns="http://www.w3.org/2000/svg"
   xmlns:sodipodi="http://sodipodi.sourceforge.net/DTD/sodipodi-0.dtd"
   xmlns:inkscape="http://www.inkscape.org/namespaces/inkscape"
   width="210mm"
   height="297mm"
   viewBox="0 0 210 297"
   version="1.1"
   id="svg8"
   inkscape:version="0.92.5 (2060ec1f9f, 2020-04-08)"
   sodipodi:docname="humain_humain.svg"
   inkscape:export-filename="/home/maxime/Documents/Inkscape/move_available.png"
   inkscape:export-xdpi="300"
   inkscape:export-ydpi="300">
  <defs
     id="defs2">
    <marker
       inkscape:stockid="Arrow1Lstart"
       orient="auto"
       refY="0.0"
       refX="0.0"
       id="marker3975"
       style="overflow:visible"
       inkscape:isstock="true">
      <path
         id="path3973"
         d="M 0.0,0.0 L 5.0,-5.0 L -12.5,0.0 L 5.0,5.0 L 0.0,0.0 z "
         style="fill-rule:evenodd;stroke:#fc0000;stroke-width:1pt;stroke-opacity:1;fill:#fc0000;fill-opacity:1"
         transform="scale(0.8) translate(12.5,0)" />
    </marker>
    <marker
       inkscape:stockid="Arrow2Sstart"
       orient="auto"
       refY="0.0"
       refX="0.0"
       id="Arrow2Sstart"
       style="overflow:visible"
       inkscape:isstock="true">
      <path
         id="path997"
         style="fill-rule:evenodd;stroke-width:0.625;stroke-linejoin:round;stroke:#fc0000;stroke-opacity:1;fill:#fc0000;fill-opacity:1"
         d="M 8.7185878,4.0337352 L -2.2072895,0.016013256 L 8.7185884,-4.0017078 C 6.9730900,-1.6296469 6.9831476,1.6157441 8.7185878,4.0337352 z "
         transform="scale(0.3) translate(-2.3,0)" />
    </marker>
    <marker
       inkscape:stockid="Arrow2Lstart"
       orient="auto"
       refY="0.0"
       refX="0.0"
       id="Arrow2Lstart"
       style="overflow:visible"
       inkscape:isstock="true">
      <path
         id="path985"
         style="fill-rule:evenodd;stroke-width:0.625;stroke-linejoin:round;stroke:#fc0000;stroke-opacity:1;fill:#fc0000;fill-opacity:1"
         d="M 8.7185878,4.0337352 L -2.2072895,0.016013256 L 8.7185884,-4.0017078 C 6.9730900,-1.6296469 6.9831476,1.6157441 8.7185878,4.0337352 z "
         transform="scale(1.1) translate(1,0)" />
    </marker>
    <marker
       inkscape:stockid="Arrow1Lend"
       orient="auto"
       refY="0.0"
       refX="0.0"
       id="Arrow1Lend"
       style="overflow:visible;"
       inkscape:isstock="true">
      <path
         id="path970"
         d="M 0.0,0.0 L 5.0,-5.0 L -12.5,0.0 L 5.0,5.0 L 0.0,0.0 z "
         style="fill-rule:evenodd;stroke:#000000;stroke-width:1pt;stroke-opacity:1;fill:#000000;fill-opacity:1"
         transform="scale(0.8) rotate(180) translate(12.5,0)" />
    </marker>
    <marker
       inkscape:stockid="Arrow1Lstart"
       orient="auto"
       refY="0.0"
       refX="0.0"
       id="Arrow1Lstart"
       style="overflow:visible"
       inkscape:isstock="true">
      <path
         id="path967"
         d="M 0.0,0.0 L 5.0,-5.0 L -12.5,0.0 L 5.0,5.0 L 0.0,0.0 z "
         style="fill-rule:evenodd;stroke:#000000;stroke-width:1pt;stroke-opacity:1;fill:#000000;fill-opacity:1"
         transform="scale(0.8) translate(12.5,0)" />
    </marker>
    <inkscape:path-effect
       effect="attach_path"
       id="path-effect906" />
    <linearGradient
       id="linearGradient2384"
       osb:paint="solid">
      <stop
         style="stop-color:#000000;stop-opacity:1;"
         offset="0"
         id="stop2382" />
    </linearGradient>
    <marker
       inkscape:stockid="Arrow2Lstart"
       orient="auto"
       refY="0"
       refX="0"
       id="Arrow2Lstart-7"
       style="overflow:visible"
       inkscape:isstock="true">
      <path
         inkscape:connector-curvature="0"
         id="path985-0"
         style="fill:#fc0000;fill-opacity:1;fill-rule:evenodd;stroke:#fc0000;stroke-width:0.625;stroke-linejoin:round;stroke-opacity:1"
         d="M 8.7185878,4.0337352 -2.2072895,0.01601326 8.7185884,-4.0017078 c -1.7454984,2.3720609 -1.7354408,5.6174519 -6e-7,8.035443 z"
         transform="matrix(1.1,0,0,1.1,1.1,0)" />
    </marker>
    <marker
       inkscape:stockid="Arrow2Lstart"
       orient="auto"
       refY="0"
       refX="0"
       id="Arrow2Lstart-3"
       style="overflow:visible"
       inkscape:isstock="true">
      <path
         inkscape:connector-curvature="0"
         id="path985-6"
         style="fill:#ff0000;fill-opacity:1;fill-rule:evenodd;stroke:#fc0000;stroke-width:0.625;stroke-linejoin:round;stroke-opacity:1"
         d="M 8.7185878,4.0337352 -2.2072895,0.01601326 8.7185884,-4.0017078 c -1.7454984,2.3720609 -1.7354408,5.6174519 -6e-7,8.035443 z"
         transform="matrix(1.1,0,0,1.1,1.1,0)" />
    </marker>
    <marker
       inkscape:stockid="Arrow2Lstart"
       orient="auto"
       refY="0"
       refX="0"
       id="Arrow2Lstart-6"
       style="overflow:visible"
       inkscape:isstock="true">
      <path
         inkscape:connector-curvature="0"
         id="path985-2"
         style="fill:#fc0000;fill-opacity:1;fill-rule:evenodd;stroke:#fc0000;stroke-width:0.625;stroke-linejoin:round;stroke-opacity:1"
         d="M 8.7185878,4.0337352 -2.2072895,0.01601326 8.7185884,-4.0017078 c -1.7454984,2.3720609 -1.7354408,5.6174519 -6e-7,8.035443 z"
         transform="matrix(1.1,0,0,1.1,1.1,0)" />
    </marker>
    <marker
       inkscape:stockid="Arrow2Lstart"
       orient="auto"
       refY="0"
       refX="0"
       id="Arrow2Lstart-1"
       style="overflow:visible"
       inkscape:isstock="true">
      <path
         inkscape:connector-curvature="0"
         id="path985-8"
         style="fill:#fc0000;fill-opacity:1;fill-rule:evenodd;stroke:#fc0000;stroke-width:0.625;stroke-linejoin:round;stroke-opacity:1"
         d="M 8.7185878,4.0337352 -2.2072895,0.01601326 8.7185884,-4.0017078 c -1.7454984,2.3720609 -1.7354408,5.6174519 -6e-7,8.035443 z"
         transform="matrix(1.1,0,0,1.1,1.1,0)" />
    </marker>
  </defs>
  <sodipodi:namedview
     id="base"
     pagecolor="#ffffff"
     bordercolor="#666666"
     borderopacity="1.0"
     inkscape:pageopacity="0.0"
     inkscape:pageshadow="2"
     inkscape:zoom="1.979899"
     inkscape:cx="353.27843"
     inkscape:cy="582.29745"
     inkscape:document-units="mm"
     inkscape:current-layer="layer1"
     showgrid="false"
     inkscape:snap-global="false"
     inkscape:window-width="1920"
     inkscape:window-height="1015"
     inkscape:window-x="0"
     inkscape:window-y="0"
     inkscape:window-maximized="1" />
  <metadata
     id="metadata5">
    <rdf:RDF>
      <cc:Work
         rdf:about="">
        <dc:format>image/svg+xml</dc:format>
        <dc:type
           rdf:resource="http://purl.org/dc/dcmitype/StillImage" />
        <dc:title></dc:title>
      </cc:Work>
    </rdf:RDF>
  </metadata>
  <g
     inkscape:label="Layer 1"
     inkscape:groupmode="layer"
     id="layer1">
    <path
       style="opacity:1;fill:#ff0000;fill-opacity:1;stroke:#000000;stroke-width:0.2594839"
       id="path10"
       r="7.3702579"
       cy="166.95557"
       cx="95.299004"
       d=""
       inkscape:connector-curvature="0" />
    <g
       style="fill:none;stroke:#000000;stroke-opacity:1"
       inkscape:label="MinorXGridlines"
       id="g8244"
       transform="matrix(1.3232396,0,0,1.3232396,18.736055,49.211307)">
      <path
         inkscape:connector-curvature="0"
         d="M 13.229167,0 V 132.29167"
         style="fill:none;stroke:#000000;stroke-width:0;stroke-opacity:1"
         inkscape:label="MinorXDiv0:1"
         id="path8234" />
      <path
         inkscape:connector-curvature="0"
         d="M 39.6875,0 V 132.29167"
         style="fill:none;stroke:#000000;stroke-width:0;stroke-opacity:1"
         inkscape:label="MinorXDiv1:1"
         id="path8236" />
      <path
         inkscape:connector-curvature="0"
         d="M 66.145833,0 V 132.29167"
         style="fill:none;stroke:#000000;stroke-width:0;stroke-opacity:1"
         inkscape:label="MinorXDiv2:1"
         id="path8238" />
      <path
         inkscape:connector-curvature="0"
         d="M 92.604167,0 V 132.29167"
         style="fill:none;stroke:#000000;stroke-width:0;stroke-opacity:1"
         inkscape:label="MinorXDiv3:1"
         id="path8240" />
      <path
         inkscape:connector-curvature="0"
         d="M 119.0625,0 V 132.29167"
         style="fill:none;stroke:#000000;stroke-width:0;stroke-opacity:1"
         inkscape:label="MinorXDiv4:1"
         id="path8242" />
    </g>
    <g
       id="g8437"
       transform="translate(-20.312484,-1.3363476)"
       inkscape:export-xdpi="300"
       inkscape:export-ydpi="300">
      <path
         inkscape:connector-curvature="0"
         d="m 88.756863,108.00875 v 59.05806"
         style="fill:none;stroke:#000000;stroke-width:0.40671921;stroke-opacity:1"
         inkscape:label="MajorXDiv2"
         id="path8216" />
      <path
         inkscape:connector-curvature="0"
         d="m 123.76913,108.00875 v 59.05806"
         style="fill:none;stroke:#000000;stroke-width:0.40671921;stroke-opacity:1"
         inkscape:label="MajorXDiv3"
         id="path8218" />
      <path
         inkscape:connector-curvature="0"
         d="m 158.78139,108.00875 v 59.05806"
         style="fill:none;stroke:#000000;stroke-width:0.40671921;stroke-opacity:1"
         inkscape:label="MajorXDiv4"
         id="path8220" />
      <path
         inkscape:connector-curvature="0"
         d="M 74.089767,119.23042 H 174.81283"
         style="fill:none;stroke:#000000;stroke-width:0.53115523;stroke-opacity:1"
         inkscape:label="MajorYDiv2"
         id="path8226" />
      <path
         inkscape:connector-curvature="0"
         d="M 74.089767,154.243 H 174.81283"
         style="fill:none;stroke:#000000;stroke-width:0.53115523;stroke-opacity:1"
         inkscape:label="MajorYDiv3"
         id="path8228" />
      <g
         inkscape:export-ydpi="300"
         inkscape:export-xdpi="300"
         transform="matrix(0.3586174,0,0,0.3586174,75.981541,77.261483)"
         inkscape:label="Layer 1"
         id="layer1-3-0">
        <g
           id="g85-8-0"
           transform="translate(8.6862597,-7.2162772)"
           style="fill:#00ff00">
          <path
             sodipodi:nodetypes="cccssccsssssccssccc"
             inkscape:connector-curvature="0"
             id="path12-3-5"
             transform="scale(0.26458333)"
             d="m 289.64258,512.81641 c -16.77868,8e-5 -30.38054,12.92337 -30.38086,28.86523 0.003,10.50152 6.0087,20.17291 15.68164,25.25391 h -13.58594 c -12.87136,0 -23.23242,10.36304 -23.23242,23.23437 v 102.02539 h 28.98633 c -0.25397,2.06322 -0.39453,4.18807 -0.39453,6.36524 v 73.26757 c 0,19.10996 9.868,16.63701 22.56864,16.63701 12.70063,0 23.28292,2.47295 23.28292,-16.63701 v -73.26757 c 0,-2.17717 -0.14056,-4.30202 -0.39453,-6.36524 h 28.98633 V 590.16992 c 0,-12.87133 -10.36302,-23.23437 -23.23438,-23.23437 h -13.63476 c 9.69255,-5.06836 15.71905,-14.74219 15.73242,-25.25391 -3.2e-4,-15.94186 -13.60218,-28.86515 -30.38086,-28.86523 z"
             style="opacity:1;fill:#00ff00;fill-opacity:1;stroke:#000000;stroke-width:0.84712094" />
          <path
             inkscape:connector-curvature="0"
             id="path25-33-0"
             d="m 67.846727,156.58184 v 26.55283"
             style="fill:#00ff00;stroke:#000000;stroke-width:0.25606781px;stroke-linecap:butt;stroke-linejoin:miter;stroke-opacity:1" />
          <path
             inkscape:connector-curvature="0"
             id="path25-3-8-31"
             d="m 85.422619,156.67634 v 26.41109"
             style="fill:#00ff00;stroke:#000000;stroke-width:0.25538343px;stroke-linecap:butt;stroke-linejoin:miter;stroke-opacity:1" />
          <path
             sodipodi:nodetypes="cc"
             inkscape:connector-curvature="0"
             id="path25-3-6-0-8"
             d="m 76.634685,184.43701 -0.09449,24.11949"
             style="fill:#00ff00;stroke:#000000;stroke-width:0.26645029px;stroke-linecap:butt;stroke-linejoin:miter;stroke-opacity:1" />
        </g>
      </g>
      <g
         inkscape:export-ydpi="300"
         inkscape:export-xdpi="300"
         transform="matrix(0.35861739,0,0,0.35861739,110.78804,77.485285)"
         inkscape:label="Layer 1"
         id="layer1-3-0-5">
        <g
           id="g85-8-0-6"
           transform="translate(8.6862597,-7.2162772)"
           style="fill:#00ff00">
          <path
             sodipodi:nodetypes="cccssccsssssccssccc"
             inkscape:connector-curvature="0"
             id="path12-3-5-2"
             transform="scale(0.26458333)"
             d="m 289.64258,512.81641 c -16.77868,8e-5 -30.38054,12.92337 -30.38086,28.86523 0.003,10.50152 6.0087,20.17291 15.68164,25.25391 h -13.58594 c -12.87136,0 -23.23242,10.36304 -23.23242,23.23437 v 102.02539 h 28.98633 c -0.25397,2.06322 -0.39453,4.18807 -0.39453,6.36524 v 73.26757 c 0,19.10996 9.868,16.63701 22.56864,16.63701 12.70063,0 23.28292,2.47295 23.28292,-16.63701 v -73.26757 c 0,-2.17717 -0.14056,-4.30202 -0.39453,-6.36524 h 28.98633 V 590.16992 c 0,-12.87133 -10.36302,-23.23437 -23.23438,-23.23437 h -13.63476 c 9.69255,-5.06836 15.71905,-14.74219 15.73242,-25.25391 -3.2e-4,-15.94186 -13.60218,-28.86515 -30.38086,-28.86523 z"
             style="opacity:1;fill:#00ff00;fill-opacity:1;stroke:#000000;stroke-width:0.84712094" />
          <path
             inkscape:connector-curvature="0"
             id="path25-33-0-9"
             d="m 67.846727,156.58184 v 26.55283"
             style="fill:#00ff00;stroke:#000000;stroke-width:0.25606781px;stroke-linecap:butt;stroke-linejoin:miter;stroke-opacity:1" />
          <path
             inkscape:connector-curvature="0"
             id="path25-3-8-31-1"
             d="m 85.422619,156.67634 v 26.41109"
             style="fill:#00ff00;stroke:#000000;stroke-width:0.25538343px;stroke-linecap:butt;stroke-linejoin:miter;stroke-opacity:1" />
          <path
             sodipodi:nodetypes="cc"
             inkscape:connector-curvature="0"
             id="path25-3-6-0-8-2"
             d="m 76.634685,184.43701 -0.09449,24.11949"
             style="fill:#00ff00;stroke:#000000;stroke-width:0.26645029px;stroke-linecap:butt;stroke-linejoin:miter;stroke-opacity:1" />
        </g>
      </g>
    </g>
  </g>
</svg>
